<?xml version="1.0" standalone="no"?>
<!DOCTYPE svg PUBLIC "-//W3C//DTD SVG 20010904//EN"
 "http://www.w3.org/TR/2001/REC-SVG-20010904/DTD/svg10.dtd">
<svg version="1.0" xmlns="http://www.w3.org/2000/svg"
 width="373.000000pt" height="145.000000pt" viewBox="0 0 373.000000 145.000000"
 preserveAspectRatio="xMidYMid meet">
<metadata>
Created by potrace 1.16, written by Peter Selinger 2001-2019
</metadata>
<g transform="translate(0.000000,145.000000) scale(0.100000,-0.100000)"
fill="#000000" stroke="none">
<path d="M560 1333 c-184 -22 -318 -100 -380 -223 -12 -25 -26 -53 -31 -62 -5
-10 -9 -28 -9 -41 0 -13 -7 -38 -16 -55 -13 -27 -15 -66 -12 -242 2 -150 7
-213 16 -222 6 -6 12 -21 12 -33 0 -11 6 -36 13 -55 52 -142 149 -225 313
-267 64 -17 160 -18 1399 -18 1239 0 1335 1 1399 18 164 42 261 125 313 267 7
19 13 44 13 55 0 12 6 27 13 34 9 9 12 70 12 236 0 166 -3 227 -12 236 -7 7
-13 26 -13 41 0 16 -4 36 -9 46 -5 9 -19 37 -31 62 -50 98 -148 171 -282 207
-58 16 -173 17 -1368 19 -718 0 -1321 -1 -1340 -3z m2705 -31 c94 -26 174 -72
220 -125 38 -44 85 -131 85 -157 0 -10 9 -37 20 -61 17 -39 20 -66 20 -234 0
-168 -3 -195 -20 -234 -11 -24 -20 -52 -20 -62 0 -21 -9 -39 -57 -116 -55 -87
-131 -135 -269 -170 -64 -17 -158 -18 -1379 -18 -1227 0 -1314 1 -1380 18
-104 26 -169 60 -222 114 -49 49 -103 140 -103 173 0 10 -9 37 -20 61 -17 39
-20 66 -20 234 0 168 3 195 20 234 11 24 20 51 20 62 0 22 40 99 76 147 58 75
181 132 327 152 34 4 638 7 1342 6 l1280 -1 80 -23z"/>
<path d="M592 1299 c-162 -17 -281 -77 -352 -177 -37 -51 -61 -116 -89 -235
-14 -61 -14 -263 0 -324 42 -180 87 -262 182 -327 68 -47 156 -74 277 -86 134
-13 2381 -13 2509 0 283 29 395 129 460 413 14 61 14 263 0 324 -42 180 -88
262 -181 326 -71 48 -153 74 -277 86 -126 13 -2405 13 -2529 0z m2637 -32
c173 -47 283 -162 323 -337 16 -71 16 -338 1 -408 -17 -73 -64 -170 -104 -214
-48 -53 -138 -103 -222 -124 -68 -18 -139 -19 -1362 -19 -1223 0 -1294 1
-1362 19 -84 21 -173 71 -222 124 -41 45 -86 138 -103 212 -16 72 -16 338 0
410 46 203 175 316 397 349 33 5 629 8 1325 7 1167 -2 1270 -3 1329 -19z"/>
<path d="M652 1258 c13 -4 -6 -6 -41 -4 -45 3 -60 1 -50 -6 10 -7 2 -8 -26 -3
-31 4 -37 3 -25 -5 12 -9 9 -10 -13 -5 -20 4 -27 2 -22 -6 5 -8 0 -9 -16 -4
-20 5 -21 4 -9 -5 12 -10 11 -11 -8 -7 -14 3 -20 1 -15 -6 4 -7 0 -8 -11 -4
-11 5 -15 3 -10 -5 5 -8 2 -9 -9 -5 -10 4 -16 2 -14 -5 1 -6 -4 -13 -12 -16
-10 -3 -11 0 -5 9 7 12 5 12 -9 0 -9 -7 -15 -17 -12 -21 5 -9 -39 -52 -47 -45
-2 3 -13 -5 -24 -17 -10 -12 -13 -18 -5 -13 9 5 12 3 9 -6 -3 -8 -10 -13 -16
-12 -7 2 -9 -4 -5 -14 4 -11 3 -14 -5 -9 -8 5 -10 1 -5 -10 4 -12 3 -15 -5
-10 -8 5 -10 1 -5 -10 5 -14 8 -12 20 10 8 16 19 24 25 19 9 -5 9 -8 0 -11 -7
-2 -10 -8 -6 -13 3 -5 0 -9 -6 -9 -6 0 -8 -4 -5 -10 3 -5 2 -10 -2 -10 -14 0
-9 -60 6 -69 16 -10 41 -4 41 10 0 4 -7 6 -15 3 -8 -4 -15 -1 -15 5 0 6 6 11
13 11 7 1 4 7 -7 15 -18 14 -18 15 3 50 25 43 26 49 6 41 -8 -3 -15 -1 -15 5
0 15 77 95 85 87 4 -3 -9 -21 -28 -39 -29 -28 -33 -36 -23 -51 8 -14 8 -21 -2
-27 -11 -7 -10 -9 3 -14 9 -4 14 -3 11 2 -3 5 1 12 10 15 9 4 14 9 10 13 -3 4
4 18 16 32 l23 26 -27 -24 c-16 -14 -31 -22 -34 -18 -10 10 56 68 69 60 5 -3
7 -1 4 4 -4 6 0 14 9 17 13 5 14 9 4 21 -10 13 -7 17 24 30 124 52 61 50 1431
50 1370 0 1307 2 1431 -50 31 -13 34 -17 24 -30 -10 -12 -9 -16 4 -21 9 -3 13
-11 9 -17 -3 -5 -1 -7 4 -4 13 8 79 -50 69 -60 -3 -4 -18 4 -34 18 l-27 24 23
-26 c12 -14 19 -28 16 -32 -4 -4 1 -9 10 -13 9 -3 13 -11 10 -16 -4 -6 1 -6
13 1 17 9 22 6 32 -16 10 -21 9 -27 -6 -39 -11 -8 -13 -13 -5 -14 6 0 12 -5
12 -11 0 -6 -7 -9 -15 -5 -8 3 -15 1 -15 -3 0 -14 25 -20 41 -10 15 9 20 69 6
69 -4 0 -5 5 -2 10 3 6 1 10 -5 10 -6 0 -8 5 -5 10 3 6 1 10 -4 10 -6 0 -11 7
-11 15 0 8 -5 15 -11 15 -6 0 -9 -7 -5 -15 3 -8 1 -15 -4 -15 -13 0 -13 27 1
35 6 4 -5 21 -26 42 -20 19 -34 38 -30 41 9 9 64 -50 94 -101 21 -37 30 -45
34 -32 5 11 3 14 -5 9 -8 -5 -9 -2 -5 10 5 11 3 15 -5 10 -8 -5 -9 -2 -5 9 4
10 2 16 -5 14 -6 -1 -13 4 -16 12 -3 9 0 11 9 6 8 -5 6 1 -5 13 -10 12 -22 20
-26 17 -9 -5 -52 40 -45 47 3 3 -2 11 -12 19 -14 12 -15 12 -9 0 6 -9 5 -12
-5 -9 -8 3 -13 10 -12 16 2 7 -4 9 -14 5 -11 -4 -14 -3 -9 5 5 8 1 10 -10 5
-11 -4 -15 -3 -11 4 5 7 -1 9 -15 6 -19 -4 -20 -3 -8 7 12 9 11 10 -9 5 -16
-5 -21 -4 -16 4 5 8 -2 10 -22 6 -22 -5 -25 -4 -13 5 12 8 6 9 -25 5 -28 -5
-36 -4 -26 3 10 7 -5 9 -50 6 -35 -2 -54 0 -41 4 13 4 -533 7 -1213 7 -680 0
-1226 -3 -1213 -7z"/>
<path d="M1277 1233 c320 -2 846 -2 1170 0 323 1 62 2 -582 2 -643 0 -908 -1
-588 -2z"/>
<path d="M269 529 c-15 -9 -20 -69 -6 -69 4 0 5 -4 2 -10 -3 -5 -1 -10 5 -10
6 0 9 -4 6 -9 -4 -5 -1 -11 6 -13 9 -3 9 -6 0 -11 -6 -5 -17 3 -25 19 -12 22
-15 24 -20 10 -5 -11 -3 -15 5 -10 8 5 9 2 5 -10 -5 -11 -3 -15 5 -10 8 5 9 2
5 -9 -4 -10 -2 -16 5 -14 6 1 13 -4 16 -12 3 -9 0 -11 -9 -6 -8 5 -6 -1 5 -13
10 -12 22 -20 26 -17 8 5 56 -43 53 -53 -2 -4 5 -7 15 -7 9 0 16 -5 15 -12 -2
-8 4 -10 14 -6 11 4 14 3 9 -5 -5 -8 -1 -10 10 -5 12 4 15 3 10 -5 -5 -8 -1
-10 10 -5 11 4 15 3 11 -4 -5 -7 1 -9 15 -5 14 3 19 2 14 -6 -8 -14 3 -15 23
-3 9 6 -1 14 -38 26 -53 17 -68 29 -51 40 5 3 10 1 10 -5 0 -6 4 -8 10 -5 6 3
10 1 10 -5 0 -6 4 -9 9 -6 5 4 11 0 14 -6 5 -18 37 9 37 31 -1 14 -2 14 -14
-1 -18 -24 -29 -23 -16 1 5 11 10 26 9 33 0 7 -5 1 -11 -14 -10 -30 -31 -39
-22 -10 5 13 4 14 -4 3 -11 -15 -32 -7 -32 12 0 8 3 8 9 -1 7 -11 9 -10 14 3
4 9 3 14 -2 11 -5 -3 -12 1 -15 10 -4 9 -9 14 -13 10 -9 -9 -64 45 -57 56 3 4
-2 11 -10 14 -9 3 -13 10 -10 15 3 5 -2 6 -11 2 -10 -3 -13 -8 -6 -12 16 -10
9 -49 -8 -46 -8 1 -17 7 -19 13 -2 7 3 10 12 6 21 -8 20 -2 -5 41 -21 35 -21
36 -3 51 18 14 18 15 -3 9 -14 -4 -23 -2 -23 5 0 6 5 8 10 5 6 -3 10 -1 10 5
0 7 7 10 15 6 8 -3 15 -1 15 3 0 14 -25 20 -41 10z"/>
<path d="M3433 533 c-7 -3 -13 -9 -13 -14 0 -4 7 -6 15 -3 8 4 15 1 15 -6 0
-6 5 -8 10 -5 6 3 10 1 10 -5 0 -7 -9 -9 -22 -5 -21 6 -22 5 -5 -8 15 -12 16
-19 6 -40 -10 -22 -15 -25 -32 -16 -12 7 -17 7 -13 1 3 -5 -1 -13 -10 -16 -9
-4 -14 -9 -10 -13 9 -9 -45 -64 -56 -57 -4 3 -11 -2 -14 -10 -3 -9 -10 -13
-15 -10 -5 3 -6 -2 -2 -11 5 -13 7 -14 14 -3 6 9 9 9 9 1 0 -19 -21 -27 -32
-12 -8 11 -9 10 -4 -3 9 -29 -12 -20 -22 10 -6 15 -11 21 -11 14 -1 -7 4 -22
9 -33 13 -24 2 -25 -16 -1 -12 15 -13 15 -14 1 0 -22 32 -49 37 -31 3 6 9 10
14 6 5 -3 9 0 9 6 0 6 4 9 9 6 5 -4 11 -1 13 6 3 9 6 9 12 0 8 -14 -28 -32
-121 -59 -53 -16 -161 -18 -1268 -21 -803 -2 -1243 1 -1308 8 -64 6 -105 7
-115 0 -12 -6 -5 -8 23 -4 28 4 36 3 26 -4 -10 -7 5 -9 50 -7 38 3 52 1 35 -3
-17 -4 532 -7 1219 -7 687 0 1236 3 1219 7 -17 4 -3 6 35 3 45 -2 60 0 50 7
-10 7 -2 8 26 4 30 -4 36 -3 25 5 -11 8 -8 9 13 4 20 -4 27 -2 22 6 -5 8 -1 9
15 4 17 -5 21 -4 15 6 -6 9 -3 11 9 6 11 -5 15 -3 10 5 -5 8 -2 9 10 5 11 -5
15 -3 10 5 -5 8 -2 9 9 5 10 -4 16 -2 14 6 -1 7 6 12 15 12 10 0 17 3 15 7 -3
10 45 58 53 53 4 -3 16 5 26 17 11 12 13 18 5 13 -9 -5 -12 -3 -9 6 3 8 10 13
16 12 7 -2 9 4 5 14 -4 11 -3 14 5 9 8 -5 10 -1 5 10 -4 12 -3 15 5 10 8 -5
10 -2 6 8 -3 9 -9 14 -12 13 -6 -2 -13 9 -11 16 0 1 3 14 5 29 5 28 -18 50
-43 41z"/>
<path d="M1322 393 c295 -2 781 -2 1080 0 299 1 57 2 -537 2 -594 0 -838 -1
-543 -2z"/>
<path d="M722 308 c13 -3 527 -6 1143 -6 616 0 1130 3 1143 6 13 4 -502 7
-1143 7 -641 0 -1156 -3 -1143 -7z"/>
<path d="M1322 273 c295 -2 781 -2 1080 0 299 1 57 2 -537 2 -594 0 -838 -1
-543 -2z"/>
<path d="M685 220 c26 -11 2334 -11 2360 0 11 5 -502 9 -1180 9 -678 0 -1191
-4 -1180 -9z"/>
</g>
</svg>
