<?xml version="1.0" standalone="no"?>
<!DOCTYPE svg PUBLIC "-//W3C//DTD SVG 20010904//EN"
 "http://www.w3.org/TR/2001/REC-SVG-20010904/DTD/svg10.dtd">
<svg version="1.0" xmlns="http://www.w3.org/2000/svg"
 width="655.000000pt" height="429.000000pt" viewBox="0 0 655.000000 429.000000"
 preserveAspectRatio="xMidYMid meet">
<metadata>
Created by potrace 1.16, written by Peter Selinger 2001-2019
</metadata>
<g transform="translate(0.000000,429.000000) scale(0.100000,-0.100000)"
fill="#000000" stroke="none">
<path d="M560 4173 c-184 -21 -318 -100 -380 -223 -12 -25 -26 -53 -31 -62 -5
-10 -9 -29 -9 -42 0 -13 -7 -37 -15 -52 -13 -25 -15 -231 -15 -1642 0 -1411 2
-1617 15 -1649 8 -19 15 -44 15 -55 0 -38 61 -147 108 -194 55 -55 139 -98
243 -122 69 -16 251 -17 2784 -17 2533 0 2715 1 2784 17 104 24 188 67 243
122 47 47 108 156 108 194 0 11 7 36 15 56 13 32 15 229 13 1660 -2 1284 -6
1628 -15 1638 -7 6 -13 25 -13 40 0 16 -4 36 -9 46 -5 9 -19 37 -31 62 -50 98
-148 170 -282 207 -59 16 -245 18 -2778 19 -1493 0 -2731 -1 -2750 -3z m5525
-31 c94 -26 175 -72 220 -125 38 -44 85 -131 85 -157 0 -10 9 -37 20 -61 19
-43 20 -71 20 -1649 0 -1578 -1 -1606 -20 -1649 -11 -24 -20 -52 -20 -63 0
-36 -63 -138 -112 -183 -55 -49 -126 -86 -208 -106 -82 -21 -5508 -21 -5590 0
-82 20 -153 57 -208 106 -49 45 -112 147 -112 183 0 11 -9 39 -20 63 -19 43
-20 71 -20 1649 0 1578 1 1606 20 1649 11 24 20 51 20 62 0 22 40 99 76 147
58 75 182 132 327 151 34 5 1273 8 2752 7 l2690 -1 80 -23z"/>
<path d="M592 4139 c-162 -17 -281 -77 -352 -177 -37 -51 -61 -116 -89 -235
-8 -33 -11 -492 -11 -1575 0 -1584 -1 -1554 39 -1698 14 -53 78 -151 122 -188
52 -44 149 -86 236 -101 116 -21 5360 -21 5476 0 87 15 184 57 236 101 44 37
108 135 122 188 40 144 39 114 39 1698 0 1083 -3 1542 -11 1575 -42 180 -88
262 -181 326 -71 48 -153 74 -277 86 -127 13 -5224 13 -5349 0z m5469 -35
c170 -53 271 -162 311 -334 19 -80 19 -3159 1 -3240 -43 -187 -162 -305 -348
-345 -106 -22 -5394 -22 -5500 0 -186 40 -305 158 -348 345 -18 81 -18 3160 1
3240 16 71 62 166 98 206 70 77 175 128 296 143 34 5 1269 8 2743 7 l2680 -1
66 -21z"/>
<path d="M600 3640 c0 -82 3 -100 15 -100 12 0 15 13 15 60 0 33 3 60 8 60 4
-1 27 -27 52 -60 25 -33 53 -59 63 -60 15 0 17 11 17 100 0 93 -1 100 -20 100
-17 0 -19 -8 -22 -65 l-3 -66 -49 66 c-28 36 -56 65 -63 65 -10 0 -13 -24 -13
-100z"/>
<path d="M860 3683 c-51 -19 -68 -85 -30 -123 36 -36 102 -21 121 27 21 57
-35 116 -91 96z"/>
<path d="M195 2150 c0 -833 1 -1174 2 -758 2 417 2 1099 0 1515 -1 417 -2 76
-2 -757z"/>
<path d="M6355 2150 c0 -833 1 -1174 2 -758 2 417 2 1099 0 1515 -1 417 -2 76
-2 -757z"/>
<path d="M210 2150 c0 -987 3 -1490 10 -1490 7 0 10 503 10 1490 0 987 -3
1490 -10 1490 -7 0 -10 -503 -10 -1490z"/>
<path d="M6320 2150 c0 -987 3 -1490 10 -1490 7 0 10 503 10 1490 0 987 -3
1490 -10 1490 -7 0 -10 -503 -10 -1490z"/>
<path d="M275 2150 c0 -800 1 -1128 2 -727 2 400 2 1054 0 1455 -1 400 -2 72
-2 -728z"/>
<path d="M305 2150 c0 -800 1 -1128 2 -727 2 400 2 1054 0 1455 -1 400 -2 72
-2 -728z"/>
<path d="M6275 2150 c0 -800 1 -1128 2 -727 2 400 2 1054 0 1455 -1 400 -2 72
-2 -728z"/>
<path d="M6245 2145 c0 -797 1 -1122 2 -722 2 401 2 1053 0 1450 -1 397 -2 70
-2 -728z"/>
<path d="M592 2948 c-17 -17 -17 -349 0 -366 7 -7 40 -12 76 -12 l65 0 -6 61
c-5 57 -4 60 12 45 25 -22 36 -20 61 12 l21 27 -6 -29 c-3 -16 -10 -49 -14
-73 l-8 -43 79 0 c75 0 79 1 88 26 6 14 10 84 10 156 0 122 -1 131 -22 148
-18 14 -20 20 -10 32 14 18 22 17 -188 24 -108 4 -148 2 -158 -8z"/>
<path d="M5232 1293 c-47 -23 -75 -67 -79 -127 -7 -92 45 -155 135 -164 93 -8
161 47 170 138 11 120 -117 207 -226 153z"/>
<path d="M263 528 c-11 -17 -11 -58 0 -58 4 0 5 -4 2 -10 -3 -5 -1 -10 5 -10
6 0 8 -4 5 -10 -3 -5 -1 -10 5 -10 6 0 9 -4 6 -9 -3 -5 1 -12 10 -15 9 -4 14
-9 10 -13 -3 -3 3 -13 14 -20 11 -8 18 -19 14 -24 -9 -15 -33 9 -66 68 -16 29
-34 50 -39 47 -5 -3 -9 -7 -9 -10 0 -3 4 -2 10 1 6 4 9 -4 7 -17 -1 -15 3 -22
12 -20 9 2 11 -3 7 -13 -3 -10 -2 -14 5 -10 6 4 9 0 7 -11 -2 -11 3 -19 11
-19 8 0 16 -6 19 -14 3 -9 0 -11 -9 -6 -8 5 -1 -6 14 -22 16 -17 36 -30 45
-29 9 0 17 -5 17 -12 0 -17 25 -31 43 -24 10 3 13 1 8 -6 -5 -8 -1 -10 10 -5
11 4 15 3 11 -4 -5 -7 1 -9 15 -5 13 3 19 1 15 -5 -5 -7 1 -9 15 -5 15 3 19 2
14 -7 -6 -9 0 -10 21 -6 21 5 25 4 13 -4 -11 -8 -2 -10 35 -6 28 3 42 2 33 -2
-10 -5 1195 -8 2677 -8 1482 0 2687 3 2677 8 -9 4 6 5 33 2 37 -4 46 -2 35 6
-12 8 -8 9 13 4 21 -4 27 -3 21 6 -5 9 -1 10 14 7 14 -4 20 -2 15 5 -4 6 2 8
15 5 14 -4 20 -2 15 5 -4 7 0 8 11 4 11 -4 15 -3 11 4 -4 6 1 9 11 7 12 -2 18
2 16 10 -1 7 5 12 15 10 11 -2 17 2 15 11 -2 8 3 11 11 8 9 -3 27 8 43 25 16
17 23 28 15 23 -9 -5 -12 -3 -9 6 3 8 11 14 19 14 8 0 13 8 11 19 -2 11 1 15
7 11 7 -4 8 0 5 10 -4 10 -2 15 7 13 9 -2 13 5 12 20 -2 15 1 21 9 16 7 -4 8
-3 4 4 -11 17 -14 15 -32 -20 -9 -18 -27 -48 -41 -66 -21 -28 -27 -31 -41 -20
-14 10 -15 10 -5 -2 10 -11 9 -17 -4 -32 -25 -27 -38 -22 -18 8 11 18 13 24 4
19 -12 -7 -12 -5 -1 6 7 8 16 14 20 15 20 2 41 17 36 25 -3 5 2 12 10 15 9 3
13 10 10 15 -3 5 0 9 6 9 6 0 8 4 5 10 -3 5 -1 10 5 10 6 0 8 4 5 10 -3 5 -2
10 2 10 11 0 11 41 0 57 -13 20 -22 15 -23 -12 -1 -14 2 -25 7 -25 5 0 9 -4 9
-9 0 -5 -10 -7 -22 -3 -14 3 -19 2 -14 -6 4 -7 3 -12 -2 -12 -5 0 -9 -7 -9
-15 0 -23 14 -18 20 7 4 12 9 20 12 16 3 -3 0 -17 -6 -31 -10 -22 -15 -25 -32
-16 -13 8 -17 8 -13 0 4 -5 -5 -18 -19 -27 -13 -9 -22 -21 -18 -27 3 -5 1 -7
-4 -4 -6 4 -14 0 -17 -9 -3 -8 -10 -12 -16 -9 -6 3 -13 -1 -16 -9 -3 -9 -11
-13 -16 -10 -6 4 -5 -3 1 -15 14 -25 4 -28 -16 -4 -16 20 -7 -3 10 -25 8 -9
13 -8 24 5 9 12 12 13 8 3 -4 -8 2 -4 12 9 16 19 20 20 20 6 0 -24 -105 -71
-187 -84 -91 -15 -5320 -15 -5409 0 -75 12 -163 47 -155 61 4 6 9 6 14 -1 5
-9 9 -9 17 1 17 22 26 45 10 26 -20 -25 -30 -22 -16 3 6 12 7 19 1 15 -5 -3
-13 1 -16 10 -3 8 -10 12 -16 9 -6 -3 -13 1 -16 9 -3 9 -11 13 -17 9 -6 -3 -7
-1 -3 5 4 6 -5 18 -19 28 -13 9 -22 21 -19 26 4 6 -1 6 -13 -1 -17 -9 -22 -6
-32 16 -6 14 -9 28 -6 31 3 4 8 -4 12 -16 6 -25 20 -30 20 -7 0 8 -4 15 -9 15
-5 0 -6 5 -2 12 5 8 0 9 -14 6 -12 -4 -22 -2 -22 3 0 5 4 9 9 9 5 0 8 11 7 25
-1 27 -10 32 -23 13z"/>
<path d="M1998 343 c706 -2 1858 -2 2560 0 702 1 125 2 -1283 2 -1408 0 -1983
-1 -1277 -2z"/>
<path d="M678 327 c10 -4 3 -5 -17 -2 -19 3 -32 3 -29 0 7 -7 5278 -11 5278
-4 0 3 -12 4 -27 2 -17 -3 -23 -1 -16 4 6 4 -1163 8 -2598 8 -1434 0 -2601 -3
-2591 -8z"/>
<path d="M2023 303 c692 -2 1822 -2 2510 0 689 1 123 2 -1258 2 -1380 0 -1944
-1 -1252 -2z"/>
<path d="M760 274 c-8 -1 -37 -6 -65 -10 -47 -7 -48 -8 -20 -15 26 -6 23 -7
-19 -8 -27 0 -47 -3 -44 -6 7 -7 5319 -7 5326 0 3 3 -17 6 -44 6 -41 1 -44 2
-19 8 25 6 17 9 -48 19 -59 9 -676 12 -2565 11 -1368 -1 -2494 -3 -2502 -5z"/>
<path d="M2003 183 c703 -2 1851 -2 2550 0 700 1 125 2 -1278 2 -1402 0 -1975
-1 -1272 -2z"/>
</g>
</svg>
