<?xml version="1.0" standalone="no"?>
<!DOCTYPE svg PUBLIC "-//W3C//DTD SVG 20010904//EN"
 "http://www.w3.org/TR/2001/REC-SVG-20010904/DTD/svg10.dtd">
<svg version="1.0" xmlns="http://www.w3.org/2000/svg"
 width="824.000000pt" height="563.000000pt" viewBox="0 0 824.000000 563.000000"
 preserveAspectRatio="xMidYMid meet">
<metadata>
Created by potrace 1.16, written by Peter Selinger 2001-2019
</metadata>
<g transform="translate(0.000000,563.000000) scale(0.100000,-0.100000)"
fill="#000000" stroke="none">
<path d="M2218 5573 c1046 -2 2758 -2 3805 0 1046 1 190 2 -1903 2 -2093 0
-2949 -1 -1902 -2z"/>
<path d="M75 5361 c6 -11 4 -13 -8 -8 -10 3 -17 2 -17 -3 0 -6 6 -10 13 -10 9
0 11 -509 9 -2517 -1 -1384 0 -2514 3 -2511 8 7 6 5050 -1 5057 -4 3 -3 0 1
-8z"/>
<path d="M55 2815 c0 -1386 1 -1952 2 -1257 2 695 2 1829 0 2520 -1 691 -2
123 -2 -1263z"/>
<path d="M8185 2815 c0 -1386 1 -1952 2 -1257 2 695 2 1829 0 2520 -1 691 -2
123 -2 -1263z"/>
<path d="M8165 2815 c0 -1380 1 -1944 2 -1252 2 692 2 1822 0 2510 -1 689 -2
123 -2 -1258z"/>
<path d="M353 4743 c-37 -7 -71 -51 -79 -100 -9 -63 0 -184 16 -210 31 -50 -5
-48 1075 -48 1093 0 1047 -2 1076 53 19 34 19 220 1 253 -30 57 27 54 -1062
55 -553 1 -1015 0 -1027 -3z m79 -130 c17 -15 18 -15 18 0 0 10 7 17 15 17 10
0 15 -10 15 -27 1 -24 2 -26 11 -10 9 15 23 17 90 16 43 -1 79 -3 79 -4 0 -1
-5 -16 -11 -33 -9 -25 -16 -30 -41 -30 -16 1 -32 7 -35 15 -4 11 -10 10 -25
-6 -23 -25 -32 -26 -52 -5 -9 8 -16 11 -16 5 0 -19 -28 -12 -44 11 l-16 22 0
-22 c0 -13 -6 -22 -15 -22 -11 0 -15 12 -15 45 0 49 11 56 42 28z m351 5 c18
-9 27 -22 28 -38 2 -24 2 -24 6 3 5 34 33 36 33 2 0 -14 4 -25 9 -25 4 0 6 11
3 25 -4 22 -1 25 22 25 26 0 36 -15 14 -22 -7 -3 -6 -7 5 -11 14 -5 17 -1 17
23 0 19 5 30 14 30 18 0 26 -22 19 -49 -3 -12 -1 -21 5 -21 6 0 12 10 14 23 3
21 8 22 91 25 l87 3 0 -36 c0 -19 -4 -35 -10 -35 -5 0 -10 9 -10 20 0 11 -4
20 -10 20 -5 0 -10 -9 -10 -20 0 -11 -4 -20 -10 -20 -5 0 -10 9 -10 20 0 11
-4 20 -10 20 -5 0 -10 -9 -10 -20 0 -14 -7 -20 -22 -20 -13 0 -31 0 -40 0 -10
0 -25 0 -33 0 -8 0 -22 0 -30 0 -8 0 -21 0 -27 0 -7 0 -37 -1 -66 -2 -30 -2
-59 0 -65 4 -5 3 -20 2 -32 -2 -45 -17 -87 44 -53 78 15 15 47 15 81 0z"/>
<path d="M5225 2648 c-3 -14 13 -77 39 -153 l44 -130 1 127 c1 151 -6 178 -49
178 -22 0 -31 -5 -35 -22z"/>
<path d="M2903 2405 c-34 -14 -53 -41 -53 -74 0 -15 -16 -29 -60 -51 -41 -21
-60 -36 -60 -49 0 -10 22 -65 50 -122 l49 -104 1 83 c0 53 4 81 10 77 6 -3 10
-15 10 -26 0 -11 13 -34 29 -50 l29 -29 736 0 c507 0 742 3 759 11 44 20 57
58 57 166 0 113 -10 141 -60 165 -32 17 -89 18 -750 18 -585 -1 -721 -3 -747
-15z"/>
<path d="M726 1948 c-14 -20 -16 -100 -16 -668 0 -489 3 -649 12 -658 8 -8 50
-12 125 -12 l113 0 0 65 0 65 -59 0 -59 0 -5 38 c-3 20 -5 280 -6 577 -1 537
-1 540 -22 558 -14 11 -19 24 -16 37 8 30 -46 28 -67 -2z"/>
<path d="M7710 1660 c0 -16 -6 -33 -14 -37 -12 -7 -15 -64 -17 -343 -2 -184
-5 -381 -7 -437 l-4 -103 -59 0 -60 0 3 -62 3 -63 118 -3 117 -3 0 529 c0 397
-3 531 -12 540 -7 7 -25 12 -40 12 -24 0 -28 -4 -28 -30z"/>
<path d="M1342 678 l3 -63 118 -3 117 -3 0 66 0 65 -120 0 -121 0 3 -62z"/>
<path d="M1950 687 c0 -29 5 -58 12 -65 8 -8 50 -12 125 -12 l113 0 0 65 0 65
-125 0 -125 0 0 -53z"/>
<path d="M2582 678 l3 -63 123 -3 122 -3 0 66 0 65 -125 0 -126 0 3 -62z"/>
<path d="M3202 678 l3 -63 123 -3 122 -3 0 66 0 65 -125 0 -126 0 3 -62z"/>
<path d="M3822 678 l3 -63 123 -3 122 -3 0 66 0 65 -125 0 -126 0 3 -62z"/>
<path d="M4442 678 l3 -63 123 -3 122 -3 0 66 0 65 -125 0 -126 0 3 -62z"/>
<path d="M5062 678 l3 -63 123 -3 122 -3 0 66 0 65 -125 0 -126 0 3 -62z"/>
<path d="M5682 678 l3 -63 123 -3 122 -3 0 66 0 65 -125 0 -126 0 3 -62z"/>
<path d="M6312 678 l3 -63 118 -3 117 -3 0 66 0 65 -120 0 -121 0 3 -62z"/>
<path d="M6920 691 c0 -83 -3 -81 131 -81 l119 0 0 65 0 65 -125 0 -125 0 0
-49z"/>
<path d="M2207 73 c1052 -2 2774 -2 3825 0 1052 1 192 2 -1912 2 -2104 0
-2964 -1 -1913 -2z"/>
<path d="M2213 53 c1049 -2 2765 -2 3815 0 1049 1 190 2 -1908 2 -2098 0
-2957 -1 -1907 -2z"/>
</g>
</svg>
